<svg width="512" height="512" viewBox="0 0 512 512" fill="none" xmlns="http://www.w3.org/2000/svg">
<rect width="512" height="512" fill="white"/>
<path fill-rule="evenodd" clip-rule="evenodd" d="M138.979 146.274C149.962 144.748 163.195 143.689 178.68 143.096C194.161 142.506 210.353 142.551 227.255 143.231C244.154 143.909 259.402 145.48 272.997 147.944C182.845 213.402 116.42 270.15 73.7201 318.187C67.4674 325.278 62.5961 331.728 59.1061 337.535C55.6152 343.346 52.4109 351.233 49.4931 361.196C47.1379 369.238 46.1831 375.554 46.6285 380.143C47.0744 384.731 49.0608 388.302 52.5875 390.855C56.1141 393.405 61.2657 395.673 68.0423 397.659C104.301 408.277 142.925 412.851 183.917 411.381C224.908 409.912 263.392 402.916 299.37 390.391C335.347 377.867 366.333 360.324 392.327 337.76C418.322 315.196 435.644 289.143 444.295 259.602C449.978 240.199 451.846 221.767 449.902 204.307C447.955 186.847 442.513 170.972 433.577 156.681C424.639 142.391 412.068 129.647 395.862 118.448C379.653 107.251 360.838 98.5141 339.416 92.2378C318.539 86.1241 296.749 82.1149 274.044 80.2101C251.338 78.3069 230.176 77.7554 210.556 78.5557C190.935 79.3574 173.043 81.045 156.88 83.6184C140.716 86.1929 128.713 88.9883 120.873 92.0047C101.593 99.4541 87.6011 118.037 78.8971 147.752C75.5185 159.289 78.4988 166.425 87.8381 169.16C90.7652 170.017 94.4364 170.38 98.8519 170.25C103.262 170.118 110.668 169.44 121.07 168.216C131.466 166.991 141.489 166.036 151.138 165.349C160.78 164.664 172.106 164.518 185.117 164.91C174.258 161.921 161.884 159.531 147.997 157.74C134.104 155.948 126.335 154.812 124.69 154.33C122.307 153.633 121.296 152.673 121.656 151.449C122.219 149.527 127.993 147.802 138.979 146.274ZM323.637 159.358C358.977 169.707 383.989 184.102 398.673 202.542C413.352 220.982 417.16 242.262 410.098 266.384C403.903 287.536 390.64 305.667 370.309 320.778C349.974 335.889 325.332 347.557 296.384 355.781C267.431 364.005 237.771 368.367 207.403 368.867C177.031 369.366 149.394 365.97 124.493 358.677C114.785 355.834 107.591 352.731 102.912 349.368C98.2309 346.004 96.5556 342.05 97.8866 337.505C98.5009 335.408 100.129 332.563 102.772 328.972C105.412 325.381 109.155 321.258 114 316.602C118.839 311.947 122.351 308.611 124.536 306.593C126.716 304.575 130.754 300.633 136.648 294.766C155.365 276.334 171.259 261.441 184.33 250.085C197.395 238.73 212.96 225.637 231.025 210.809C249.086 195.983 261.331 185.572 267.759 179.576C274.184 173.584 277.987 168.577 279.168 164.554C279.936 161.933 280.478 158.723 280.795 154.925C281.11 151.129 281.319 149.055 281.424 148.703C294.731 151.461 308.802 155.013 323.637 159.358Z" fill="#004AA1"/>
<path fill-rule="evenodd" clip-rule="evenodd" d="M321.3 383.403C321.3 383.403 353.171 400.063 383.047 386.992C380.134 388.284 407.776 375.316 418.101 362.59C418.404 362.959 399.603 356.431 392.149 346.364C391.765 346.813 346.288 379.372 321.3 383.403Z" fill="#008FD5"/>
<path opacity="0.48" fill-rule="evenodd" clip-rule="evenodd" d="M364.328 403.7C401.859 405.486 432.194 408.826 432.084 411.159C431.973 413.493 401.458 413.939 363.926 412.154C326.394 410.368 296.06 407.028 296.171 404.694C296.282 402.359 326.798 401.915 364.328 403.7Z" fill="#79848E"/>
<path fill-rule="evenodd" clip-rule="evenodd" d="M274.255 235.169L380.437 195.248C380.437 195.248 365.245 284.007 374.869 312.302C373.616 312.613 340.934 341.231 309.314 347.637C309.158 347.911 276.373 313.943 274.843 236.501" fill="#004AA1"/>
<path fill-rule="evenodd" clip-rule="evenodd" d="M279.984 238.048L300.576 229.904L285.001 242.198L282.648 264.247L279.984 238.048Z" fill="#008FD5"/>
<path fill-rule="evenodd" clip-rule="evenodd" d="M299.351 237.143L351.548 227.326L348.437 237.046L336.676 239.67C336.676 239.67 340.426 244.706 341.05 246.572C341.054 246.472 353.394 243.558 353.394 243.558L350.284 253.473L342.994 255.708C342.994 255.708 344.32 273.428 321.221 284.674C321.192 284.748 355.241 309.46 355.241 309.46L343.772 315.875L306.447 292.256L304.892 283.41C304.892 283.41 319.945 278.839 325.206 273.107C325.116 273.197 332.889 265.28 331.913 258.041L298.574 267.664L302.753 256.778L329.289 249.974C329.289 249.974 328.031 244.781 315.389 245.308C315.33 245.365 294.491 248.71 294.491 248.71L299.351 237.143Z" fill="white"/>
<path fill-rule="evenodd" clip-rule="evenodd" d="M205.166 194.08L315.87 155.026L319.927 179.334L233.44 216.281C233.44 216.281 229.088 281.164 278.997 340.981C278.027 342.387 237.602 276.609 242.389 219.966C242.095 221.113 347.55 174.13 347.55 174.13L349.718 197.045L267.226 232.227C267.226 232.227 264.712 300.972 302.656 350.58C302.704 350.851 288.457 353.666 280.36 353.429C279.801 354.136 203.112 267.907 205.166 194.08Z" fill="#008FD5"/>
</svg>
